<svg width="28" height="28" viewBox="0 0 28 28" fill="none" xmlns="http://www.w3.org/2000/svg">
<path d="M20.4531 8.2396L17.4271 5.21356C17.099 4.88544 16.6615 4.66669 16.1875 4.66669H8.75C7.76562 4.66669 7 5.46877 7 6.41669V21.5834C7 22.5677 7.76562 23.3334 8.75 23.3334H19.25C20.1979 23.3334 21 22.5677 21 21.5834V9.47919C21 9.00523 20.7812 8.56773 20.4531 8.2396ZM19.1042 9.33335H16.3333V6.56252L19.1042 9.33335ZM8.75 21.5834V6.41669H14.5833V10.2084C14.5833 10.7188 14.9479 11.0834 15.4583 11.0834H19.25V21.5834H8.75ZM14 18.8125V13.8906C14 13.4896 13.526 13.2709 13.2344 13.5625L11.9583 14.9115H10.9375C10.6823 14.9115 10.5 15.0938 10.5 15.349V17.3906C10.5 17.6459 10.6823 17.8281 10.9375 17.8281H11.9583L13.2344 19.1406C13.526 19.4323 14 19.2136 14 18.8125ZM15.4948 17.099C14.6562 17.974 15.9323 19.1406 16.7344 18.3386C17.7187 17.3177 17.7187 15.6771 16.7344 14.6563C15.9323 13.8542 14.6927 15.0573 15.4948 15.8959C15.8229 16.224 15.8229 16.7709 15.4948 17.099Z" fill="black"/>
</svg>
