<svg width="34" height="34" viewBox="0 0 34 34" fill="none" xmlns="http://www.w3.org/2000/svg">
<path d="M27.6692 10.0052L23.9504 6.33075C23.552 5.93231 23.0207 5.66669 22.4895 5.66669H13.414C12.2629 5.71096 11.3332 6.64065 11.3332 7.83596V11.3334H13.414V7.83596H20.4973V12.4401C20.4973 13.0156 20.9843 13.5026 21.5598 13.5026H26.2082V26.2526H15.5832V28.3334H26.164C27.3593 28.3334 28.3332 27.4037 28.3332 26.2526V11.5104C28.3332 10.9792 28.0676 10.4037 27.6692 10.0052ZM22.6223 11.3776V7.96877L26.0312 11.3776H22.6223ZM16.6015 20.6745C16.9114 20.3203 17.0442 19.8334 16.9556 19.3906C16.69 18.461 16.69 18.5938 16.9556 17.7084C17.0442 17.2214 16.9114 16.7344 16.6015 16.4245C15.9374 15.7604 15.9817 15.849 15.7603 14.9636C15.6275 14.4766 15.2733 14.1224 14.8306 13.9896C13.9452 13.7682 14.078 13.8125 13.414 13.1485C13.0598 12.8386 12.5728 12.7057 12.1301 12.8386C11.2447 13.0599 11.3775 13.0599 10.4921 12.8386C10.0494 12.7057 9.56241 12.8386 9.20824 13.1485C8.54418 13.8125 8.67699 13.7682 7.79158 13.9896C7.34887 14.1224 6.9947 14.4766 6.86189 14.9636C6.59626 15.849 6.68481 15.7604 6.02074 16.4245C5.71085 16.7344 5.57803 17.2214 5.66658 17.7084C5.9322 18.5938 5.9322 18.461 5.66658 19.3906C5.57803 19.8334 5.71085 20.3203 6.02074 20.6745C6.68481 21.3386 6.59626 21.2057 6.86189 22.1354C6.9947 22.5781 7.34887 22.9323 7.79158 23.0651C8.41137 23.2422 8.27856 23.1979 8.45564 23.2865V28.3334L11.289 26.9167L14.1223 28.3334V23.2865C14.3437 23.1979 14.2108 23.2422 14.8306 23.0651C15.2733 22.9323 15.6275 22.5781 15.7603 22.1354C16.026 21.2057 15.9374 21.3386 16.6015 20.6745ZM11.3332 21.25C9.73949 21.25 8.49991 20.0104 8.49991 18.4167C8.49991 16.8672 9.73949 15.5834 11.3332 15.5834C12.8827 15.5834 14.1666 16.8672 14.1666 18.4167C14.1666 20.0104 12.8827 21.25 11.3332 21.25Z" fill="white"/>
</svg>
