<svg width="28" height="28" viewBox="0 0 28 28" fill="none" xmlns="http://www.w3.org/2000/svg">
<path d="M20.4531 8.2396L17.4271 5.21356C17.099 4.88544 16.6615 4.66669 16.1875 4.66669H8.75C7.76562 4.66669 7 5.46877 7 6.41669V21.5834C7 22.5677 7.76562 23.3334 8.75 23.3334H19.25C20.1979 23.3334 21 22.5677 21 21.5834V9.47919C21 9.00523 20.7812 8.56773 20.4531 8.2396ZM19.1042 9.33335H16.3333V6.56252L19.1042 9.33335ZM8.75 21.5834V6.41669H14.5833V10.2084C14.5833 10.7188 14.9479 11.0834 15.4583 11.0834H19.25V21.5834H8.75ZM18.2656 14.5834C18.4115 14.4011 18.4115 14.1459 18.2656 13.9636L17.4271 13.125C17.2812 12.9427 16.9896 12.9427 16.8073 13.125L12.7604 17.1354L11.1562 15.5313C10.974 15.349 10.7187 15.349 10.5365 15.5313L9.69792 16.3334C9.55208 16.5156 9.55208 16.8073 9.69792 16.9531L12.4323 19.724C12.6146 19.9063 12.9062 19.9063 13.0521 19.724L18.2656 14.5834Z" fill="black"/>
</svg>
