<svg width="20" height="20" viewBox="0 0 20 20" fill="none" xmlns="http://www.w3.org/2000/svg">
<path d="M9.99984 3.54167C6.43213 3.54167 3.5415 6.45834 3.5415 10C3.5415 13.5677 6.43213 16.4583 9.99984 16.4583C13.5415 16.4583 16.4582 13.5677 16.4582 10C16.4582 6.45834 13.5415 3.54167 9.99984 3.54167ZM9.99984 4.79167C12.8644 4.79167 15.2082 7.13542 15.2082 10C15.2082 12.8906 12.8644 15.2083 9.99984 15.2083C7.10921 15.2083 4.7915 12.8906 4.7915 10C4.7915 7.13542 7.10921 4.79167 9.99984 4.79167ZM13.6457 8.20313L13.0467 7.60417C12.9425 7.47396 12.7342 7.47396 12.604 7.60417L8.93213 11.25L7.36963 9.68751C7.23942 9.5573 7.05713 9.5573 6.92692 9.68751L6.32796 10.2604C6.2238 10.3906 6.2238 10.599 6.32796 10.7031L8.69775 13.099C8.82796 13.2292 9.01025 13.2292 9.14046 13.099L13.6457 8.64584C13.7498 8.51563 13.7498 8.3073 13.6457 8.20313Z" fill="#323232"/>
</svg>
