<svg width="28" height="28" viewBox="0 0 28 28" fill="none" xmlns="http://www.w3.org/2000/svg">
<path d="M5.24992 6.41669H22.7499V11.3021C23.3697 11.4115 23.9895 11.6302 24.4999 11.9948V6.4896C24.4999 5.50523 23.6978 4.66669 22.7499 4.66669H5.24992C4.26554 4.66669 3.49992 5.50523 3.49992 6.4896V11.9948C3.97388 11.6302 4.59367 11.4115 5.24992 11.3021V6.41669ZM6.27075 19.3959H5.39575C3.68221 19.3959 2.33325 20.7813 2.33325 22.4584C2.33325 22.9688 2.69784 23.3334 3.20825 23.3334C3.68221 23.3334 4.08325 22.9688 4.08325 22.4584C4.08325 21.7656 4.66659 21.1459 5.39575 21.1459H6.27075C6.96346 21.1459 7.58325 21.7656 7.58325 22.4584C7.58325 22.9688 7.94784 23.3334 8.45825 23.3334C8.93221 23.3334 9.33325 22.9688 9.33325 22.4584C9.33325 20.7813 7.94784 19.3959 6.27075 19.3959ZM22.1666 12.3959C20.526 12.3959 19.2499 13.7084 19.2499 15.3125C19.2499 16.9531 20.526 18.2292 22.1666 18.2292C23.7708 18.2292 25.0833 16.9531 25.0833 15.3125C25.0833 13.7084 23.7708 12.3959 22.1666 12.3959ZM22.1666 16.4792C21.5103 16.4792 20.9999 15.9688 20.9999 15.3125C20.9999 14.6927 21.5103 14.1459 22.1666 14.1459C22.7864 14.1459 23.3333 14.6927 23.3333 15.3125C23.3333 15.9688 22.7864 16.4792 22.1666 16.4792ZM22.6041 19.3959H21.7291C20.0155 19.3959 18.6666 20.7813 18.6666 22.4584C18.6666 22.9688 19.0312 23.3334 19.5416 23.3334C20.0155 23.3334 20.4166 22.9688 20.4166 22.4584C20.4166 21.7656 20.9999 21.1459 21.7291 21.1459H22.6041C23.2968 21.1459 23.9166 21.7656 23.9166 22.4584C23.9166 22.9688 24.2812 23.3334 24.7916 23.3334C25.2655 23.3334 25.6666 22.9688 25.6666 22.4584C25.6666 20.7813 24.2812 19.3959 22.6041 19.3959ZM5.83325 18.2292C7.43742 18.2292 8.74992 16.9531 8.74992 15.3125C8.74992 13.7084 7.43742 12.3959 5.83325 12.3959C4.19263 12.3959 2.91659 13.7084 2.91659 15.3125C2.91659 16.9531 4.19263 18.2292 5.83325 18.2292ZM5.83325 14.1459C6.45304 14.1459 6.99992 14.6927 6.99992 15.3125C6.99992 15.9688 6.45304 16.4792 5.83325 16.4792C5.177 16.4792 4.66659 15.9688 4.66659 15.3125C4.66659 14.6927 5.177 14.1459 5.83325 14.1459ZM11.0833 15.3125C11.0833 16.9531 12.3593 18.2292 13.9999 18.2292C15.6041 18.2292 16.9166 16.9531 16.9166 15.3125C16.9166 13.7084 15.6041 12.3959 13.9999 12.3959C12.3593 12.3959 11.0833 13.7084 11.0833 15.3125ZM15.1666 15.3125C15.1666 15.9688 14.6197 16.4792 13.9999 16.4792C13.3437 16.4792 12.8333 15.9688 12.8333 15.3125C12.8333 14.6927 13.3437 14.1459 13.9999 14.1459C14.6197 14.1459 15.1666 14.6927 15.1666 15.3125ZM14.4374 19.3959H13.5624C11.8489 19.3959 10.4999 20.7813 10.4999 22.4584C10.4999 22.9688 10.8645 23.3334 11.3749 23.3334C11.8489 23.3334 12.2499 22.9688 12.2499 22.4584C12.2499 21.7656 12.8333 21.1459 13.5624 21.1459H14.4374C15.1301 21.1459 15.7499 21.7656 15.7499 22.4584C15.7499 22.9688 16.1145 23.3334 16.6249 23.3334C17.0989 23.3334 17.4999 22.9688 17.4999 22.4584C17.4999 20.7813 16.1145 19.3959 14.4374 19.3959Z" fill="black"/>
</svg>
