<svg width="28" height="28" viewBox="0 0 28 28" fill="none" xmlns="http://www.w3.org/2000/svg">
<path d="M17.5 13.7084C17.5 13.4896 17.2812 13.2709 17.0625 13.2709H10.9375C10.6823 13.2709 10.5 13.4896 10.5 13.7084V14.7292C10.5 14.9844 10.6823 15.1667 10.9375 15.1667H17.0625C17.2812 15.1667 17.5 14.9844 17.5 14.7292V13.7084ZM17.0625 16.3334H10.9375C10.6823 16.3334 10.5 16.5521 10.5 16.7709V17.7917C10.5 18.0469 10.6823 18.2292 10.9375 18.2292H17.0625C17.2812 18.2292 17.5 18.0469 17.5 17.7917V16.7709C17.5 16.5521 17.2812 16.3334 17.0625 16.3334ZM21 9.47919C21 9.04169 20.7812 8.56773 20.4531 8.2396L17.4271 5.21356C17.099 4.88544 16.625 4.66669 16.1875 4.66669H8.75C7.76562 4.66669 7 5.46877 7 6.41669V21.5834C7 22.5677 7.76562 23.3334 8.75 23.3334H19.25C20.1979 23.3334 21 22.5677 21 21.5834V9.47919ZM16.3333 6.56252L19.1042 9.33335H16.3333V6.56252ZM19.25 21.5834H8.75V6.41669H14.5833V10.2084C14.5833 10.7188 14.9479 11.0834 15.4583 11.0834H19.25V21.5834Z" fill="black"/>
</svg>
