<svg width="28" height="28" viewBox="0 0 28 28" fill="none" xmlns="http://www.w3.org/2000/svg">
<path d="M20.4531 8.2396L17.4271 5.1771C17.099 4.84898 16.625 4.66669 16.1875 4.66669H8.75C7.76562 4.66669 7 5.46877 7 6.41669V21.5834C7 22.5677 7.76562 23.3334 8.75 23.3334H19.25C20.1979 23.3334 21 22.5677 21 21.5834V9.47919C21 9.04169 20.7812 8.56773 20.4531 8.2396ZM19.1042 9.33335H16.3333V6.56252L19.1042 9.33335ZM8.75 21.5834V6.41669H14.5833V10.2084C14.5833 10.7188 14.9479 11.0834 15.4583 11.0834H19.25V21.5834H8.75ZM9.91667 19.8334H18.0833V15.1667L17.2083 14.3281C17.026 14.1459 16.7708 14.1459 16.5885 14.3281L13.4167 17.5L11.9583 16.0781C11.776 15.8959 11.5208 15.8959 11.3385 16.0781L9.91667 17.5V19.8334ZM11.6667 11.0834C10.6823 11.0834 9.91667 11.8854 9.91667 12.8334C9.91667 13.8177 10.6823 14.5834 11.6667 14.5834C12.6146 14.5834 13.4167 13.8177 13.4167 12.8334C13.4167 11.8854 12.6146 11.0834 11.6667 11.0834Z" fill="black"/>
</svg>
