<svg width="28" height="28" viewBox="0 0 28 28" fill="none" xmlns="http://www.w3.org/2000/svg">
<path d="M23.9167 4.66669H4.08333C3.75521 4.66669 3.5 4.95835 3.5 5.25002V5.83335C3.5 6.16148 3.75521 6.41669 4.08333 6.41669H4.66667V16.3334C4.66667 16.9896 5.17708 17.5 5.83333 17.5H13.125V19.1042L10.2812 21.9479C10.0625 22.1667 10.0625 22.5313 10.2812 22.75L10.6823 23.1875C10.901 23.4063 11.3021 23.4063 11.5208 23.1875L14 20.7084L16.4427 23.1875C16.6615 23.4063 17.0625 23.4063 17.2812 23.1875L17.6823 22.75C17.901 22.5313 17.901 22.1667 17.6823 21.9479L14.875 19.1042V17.5H22.1667C22.7865 17.5 23.3333 16.9896 23.3333 16.3334V6.41669H23.9167C24.2083 6.41669 24.5 6.16148 24.5 5.83335V5.25002C24.5 4.95835 24.2083 4.66669 23.9167 4.66669ZM21.5833 15.75H6.41667V6.41669H21.5833V15.75Z" fill="black"/>
</svg>
