<svg width="28" height="28" viewBox="0 0 28 28" fill="none" xmlns="http://www.w3.org/2000/svg">
<path d="M20.4531 8.2396L17.4271 5.21356C17.099 4.88544 16.6615 4.66669 16.1875 4.66669H8.75C7.76562 4.66669 7 5.46877 7 6.41669V21.5834C7 22.5677 7.76562 23.3334 8.75 23.3334H19.25C20.1979 23.3334 21 22.5677 21 21.5834V9.47919C21 9.00523 20.7812 8.56773 20.4531 8.2396ZM19.1042 9.33335H16.3333V6.56252L19.1042 9.33335ZM8.75 21.5834V6.41669H14.5833V10.2084C14.5833 10.7188 14.9479 11.0834 15.4583 11.0834H19.25V21.5834H8.75ZM17.0625 13.8906L15.1667 15.8229V14.4375C15.1667 14.0365 14.8385 13.7084 14.4375 13.7084H10.6458C10.2083 13.7084 9.91667 14.0365 9.91667 14.4375V18.2292C9.91667 18.6667 10.2083 18.9584 10.6458 18.9584H14.4375C14.8385 18.9584 15.1667 18.6667 15.1667 18.2292V16.8802L17.0625 18.8125C17.4271 19.1771 18.0833 18.9219 18.0833 18.375V14.3281C18.0833 13.7813 17.4271 13.5261 17.0625 13.8906Z" fill="black"/>
</svg>
