<svg width="239" height="141" viewBox="0 0 239 141" fill="none" xmlns="http://www.w3.org/2000/svg">
<rect width="239" height="141" rx="4" fill="#F7F7F7"/>
<path d="M122.688 66.5H126.5V75.5H113.5V66.5H117.281L118.031 64.5H121.938L122.688 66.5ZM122.125 63H118.031C117.406 63 116.844 63.4062 116.625 64L116.25 65H113.5C112.656 65 112 65.6875 112 66.5V75.5C112 76.3438 112.656 77 113.5 77H126.5C127.312 77 128 76.3438 128 75.5V66.5C128 65.6875 127.312 65 126.5 65H123.75L123.281 63.8125C123.094 63.3438 122.656 63 122.125 63ZM120 74.75C122.062 74.75 123.75 73.0938 123.75 71C123.75 68.9375 122.062 67.25 120 67.25C117.906 67.25 116.25 68.9375 116.25 71C116.25 73.0938 117.906 74.75 120 74.75ZM120 68.75C121.219 68.75 122.25 69.7812 122.25 71C122.25 72.25 121.219 73.25 120 73.25C118.75 73.25 117.75 72.25 117.75 71C117.75 69.7812 118.75 68.75 120 68.75Z" fill="#B3B3B3"/>
</svg>
