<svg width="730" height="397" viewBox="0 0 730 397" fill="none" xmlns="http://www.w3.org/2000/svg">
<rect width="730" height="397" rx="4" fill="#F7F7F7"/>
<path d="M367.688 194.5H371.5V203.5H358.5V194.5H362.281L363.031 192.5H366.938L367.688 194.5ZM367.125 191H363.031C362.406 191 361.844 191.406 361.625 192L361.25 193H358.5C357.656 193 357 193.688 357 194.5V203.5C357 204.344 357.656 205 358.5 205H371.5C372.312 205 373 204.344 373 203.5V194.5C373 193.688 372.312 193 371.5 193H368.75L368.281 191.812C368.094 191.344 367.656 191 367.125 191ZM365 202.75C367.062 202.75 368.75 201.094 368.75 199C368.75 196.938 367.062 195.25 365 195.25C362.906 195.25 361.25 196.938 361.25 199C361.25 201.094 362.906 202.75 365 202.75ZM365 196.75C366.219 196.75 367.25 197.781 367.25 199C367.25 200.25 366.219 201.25 365 201.25C363.75 201.25 362.75 200.25 362.75 199C362.75 197.781 363.75 196.75 365 196.75Z" fill="#B3B3B3"/>
</svg>
