<svg width="20" height="20" viewBox="0 0 20 20" fill="none" xmlns="http://www.w3.org/2000/svg">
<path d="M9.99984 3.54167C6.43213 3.54167 3.5415 6.4323 3.5415 10C3.5415 13.5677 6.43213 16.4583 9.99984 16.4583C13.5675 16.4583 16.4582 13.5677 16.4582 10C16.4582 6.4323 13.5675 3.54167 9.99984 3.54167ZM9.99984 15.2083C7.10921 15.2083 4.7915 12.8906 4.7915 10C4.7915 7.13542 7.10921 4.79167 9.99984 4.79167C12.8644 4.79167 15.2082 7.13542 15.2082 10C15.2082 12.8906 12.8644 15.2083 9.99984 15.2083ZM12.63 8.38542C12.7603 8.28126 12.7603 8.07292 12.63 7.94271L12.0571 7.3698C11.9269 7.23959 11.7186 7.23959 11.6144 7.3698L9.99984 8.98438L8.35921 7.3698C8.25505 7.23959 8.04671 7.23959 7.9165 7.3698L7.34359 7.94271C7.21338 8.07292 7.21338 8.28126 7.34359 8.38542L8.95817 10L7.34359 11.6406C7.21338 11.7448 7.21338 11.9531 7.34359 12.0833L7.9165 12.6563C8.04671 12.7865 8.25505 12.7865 8.35921 12.6563L9.99984 11.0417L11.6144 12.6563C11.7186 12.7865 11.9269 12.7865 12.0571 12.6563L12.63 12.0833C12.7603 11.9531 12.7603 11.7448 12.63 11.6406L11.0155 10L12.63 8.38542Z" fill="#323232"/>
</svg>
