<svg width="28" height="28" viewBox="0 0 28 28" fill="none" xmlns="http://www.w3.org/2000/svg">
<path d="M23.625 7H7.58333C6.81771 7 6.16146 7.51042 5.90625 8.16667H4.375C3.86458 8.16667 3.5 8.56771 3.5 9.04167V18.9583C3.5 20.0885 4.41146 21 5.54167 21H23.625C24.099 21 24.5 20.6354 24.5 20.125V7.875C24.5 7.40104 24.099 7 23.625 7ZM5.25 18.9583V9.91667H5.83333V18.9583C5.83333 19.1406 5.6875 19.25 5.54167 19.25C5.35937 19.25 5.25 19.1406 5.25 18.9583ZM22.75 19.25H7.54687C7.54687 19.1771 7.58333 19.0677 7.58333 18.9583V8.75H22.75V19.25ZM9.77083 14.875H14.7292C14.9479 14.875 15.1667 14.6927 15.1667 14.4375V10.9375C15.1667 10.7187 14.9479 10.5 14.7292 10.5H9.77083C9.51562 10.5 9.33333 10.7187 9.33333 10.9375V14.4375C9.33333 14.6927 9.51562 14.875 9.77083 14.875ZM10.7917 11.9583H13.7083V13.4167H10.7917V11.9583ZM9.33333 17.0625C9.33333 17.3177 9.51562 17.5 9.77083 17.5H14.7292C14.9479 17.5 15.1667 17.3177 15.1667 17.0625V16.1875C15.1667 15.9687 14.9479 15.75 14.7292 15.75H9.77083C9.51562 15.75 9.33333 15.9687 9.33333 16.1875V17.0625ZM16.3333 17.0625C16.3333 17.3177 16.5156 17.5 16.7708 17.5H20.5625C20.7812 17.5 21 17.3177 21 17.0625V16.1875C21 15.9687 20.7812 15.75 20.5625 15.75H16.7708C16.5156 15.75 16.3333 15.9687 16.3333 16.1875V17.0625ZM16.3333 11.8125C16.3333 12.0677 16.5156 12.25 16.7708 12.25H20.5625C20.7812 12.25 21 12.0677 21 11.8125V10.9375C21 10.7187 20.7812 10.5 20.5625 10.5H16.7708C16.5156 10.5 16.3333 10.7187 16.3333 10.9375V11.8125ZM16.3333 14.4375C16.3333 14.6927 16.5156 14.875 16.7708 14.875H20.5625C20.7812 14.875 21 14.6927 21 14.4375V13.5625C21 13.3437 20.7812 13.125 20.5625 13.125H16.7708C16.5156 13.125 16.3333 13.3437 16.3333 13.5625V14.4375Z" fill="black"/>
</svg>
