<svg width="28" height="28" viewBox="0 0 28 28" fill="none" xmlns="http://www.w3.org/2000/svg">
<path d="M20.4531 8.2396L17.4271 5.1771C17.099 4.84898 16.625 4.66669 16.1875 4.66669H8.75C7.76562 4.66669 7 5.46877 7 6.41669V21.5834C7 22.5677 7.76562 23.3334 8.75 23.3334H19.25C20.1979 23.3334 21 22.5677 21 21.5834V9.47919C21 9.04169 20.7812 8.56773 20.4531 8.2396ZM19.1042 9.33335H16.3333V6.56252L19.1042 9.33335ZM8.75 21.5834V6.41669H14.5833V10.2084C14.5833 10.7188 14.9479 11.0834 15.4583 11.0834H19.25V21.5834H8.75ZM17.8646 16.3698C17.4271 15.9323 16.151 16.0417 15.4948 16.1146C14.875 15.75 14.474 15.2031 14.1823 14.4375C14.2917 13.8542 14.5469 12.9427 14.3646 12.3959C14.2187 11.4479 12.9792 11.5209 12.7969 12.1771C12.651 12.7604 12.7969 13.599 13.0521 14.6198C12.6875 15.4948 12.1406 16.6615 11.776 17.3542C11.0469 17.7188 10.0625 18.3021 9.91667 19.0313C9.80729 19.6146 10.8646 21.0365 12.6875 17.9011C13.4896 17.6094 14.401 17.2813 15.1667 17.1354C15.8594 17.5365 16.6615 17.7552 17.2083 17.7552C18.1562 17.7552 18.2292 16.7344 17.8646 16.3698ZM10.6458 19.2136C10.8281 18.7031 11.5208 18.1198 11.7396 17.9375C11.0469 19.0313 10.6458 19.2136 10.6458 19.2136ZM13.599 12.25C13.8906 12.25 13.8542 13.4167 13.6719 13.7448C13.526 13.2344 13.526 12.25 13.599 12.25ZM12.724 17.2448C13.0885 16.625 13.3802 15.8959 13.6354 15.2396C13.9271 15.7865 14.2917 16.224 14.7292 16.5156C13.9635 16.6979 13.3073 16.9896 12.724 17.2448ZM17.5 17.0625C17.5 17.0625 17.3177 17.2813 16.151 16.7709C17.4271 16.6615 17.6458 16.9531 17.5 17.0625Z" fill="black"/>
</svg>
