<svg width="28" height="28" viewBox="0 0 28 28" fill="none" xmlns="http://www.w3.org/2000/svg">
<path d="M18.6667 16.3333C18.6667 16.9896 19.1771 17.5 19.8333 17.5C20.4531 17.5 21 16.9896 21 16.3333C21 15.7135 20.4531 15.1666 19.8333 15.1666C19.1771 15.1666 18.6667 15.7135 18.6667 16.3333ZM11.6667 17.5C11.6667 17.9375 11.776 18.3385 11.9583 18.6666H16.0052C16.1875 18.3385 16.3333 17.9375 16.3333 17.5C16.3333 17.0989 16.1875 16.6979 16.0052 16.3698L18.7396 12.7969C19.0677 12.4323 18.9948 11.8854 18.5937 11.5937C18.2292 11.2656 17.6823 11.3385 17.3906 11.7396L14.6198 15.276C14.401 15.2396 14.2187 15.1666 14 15.1666C12.6875 15.1666 11.6667 16.2239 11.6667 17.5ZM15.1667 10.5C15.1667 9.88019 14.6198 9.33331 14 9.33331C13.3437 9.33331 12.8333 9.88019 12.8333 10.5C12.8333 11.1562 13.3437 11.6666 14 11.6666C14.6198 11.6666 15.1667 11.1562 15.1667 10.5ZM8.16667 15.1666C7.51042 15.1666 7 15.7135 7 16.3333C7 16.9896 7.51042 17.5 8.16667 17.5C8.78646 17.5 9.33333 16.9896 9.33333 16.3333C9.33333 15.7135 8.78646 15.1666 8.16667 15.1666ZM9.91667 13.4166C10.5365 13.4166 11.0833 12.9062 11.0833 12.25C11.0833 11.6302 10.5365 11.0833 9.91667 11.0833C9.26042 11.0833 8.75 11.6302 8.75 12.25C8.75 12.9062 9.26042 13.4166 9.91667 13.4166ZM3.5 16.3333C3.5 18.2656 4.01042 20.0885 4.92187 21.6198C5.10417 21.9844 5.50521 22.1666 5.90625 22.1666H22.0573C22.4583 22.1666 22.8594 21.9844 23.0417 21.6198C23.9531 20.0885 24.5 18.2656 24.5 16.3333C24.5 10.5364 19.7969 5.83331 14 5.83331C8.16667 5.83331 3.5 10.5364 3.5 16.3333ZM5.25 16.3333C5.25 11.5208 9.15104 7.58331 14 7.58331C18.8125 7.58331 22.75 11.5208 22.75 16.3333C22.75 17.7916 22.3854 19.1771 21.7292 20.4166H6.23437C5.57812 19.1771 5.25 17.7916 5.25 16.3333Z" fill="black"/>
</svg>
