<svg width="54" height="54" viewBox="0 0 54 54" fill="none" xmlns="http://www.w3.org/2000/svg">
<path d="M27 16.3125C23.2734 16.3125 20.25 19.3359 20.25 23.0625C20.25 26.7891 23.2734 29.8125 27 29.8125C30.7266 29.8125 33.75 26.7891 33.75 23.0625C33.75 19.3359 30.7266 16.3125 27 16.3125ZM27 26.4375C25.1016 26.4375 23.625 24.9609 23.625 23.0625C23.625 21.2344 25.1016 19.6875 27 19.6875C28.8281 19.6875 30.375 21.2344 30.375 23.0625C30.375 24.9609 28.8281 26.4375 27 26.4375ZM27 9.5625C17.3672 9.5625 9.5625 17.3672 9.5625 27C9.5625 36.6328 17.3672 44.4375 27 44.4375C36.6328 44.4375 44.4375 36.6328 44.4375 27C44.4375 17.3672 36.6328 9.5625 27 9.5625ZM27 41.0625C23.4844 41.0625 20.25 39.7969 17.7891 37.6875C18.8438 36.0703 20.6719 34.9453 22.7109 34.9453C24.1875 35.3672 25.5938 35.5781 27 35.5781C28.3359 35.5781 29.7422 35.3672 31.2188 34.9453C33.2578 35.0156 35.0859 36.0703 36.1406 37.6875C33.6797 39.7969 30.4453 41.0625 27 41.0625ZM38.3906 35.1562C36.7031 32.9766 34.0312 31.5 31.0078 31.5C30.3047 31.5 29.1797 32.2031 27 32.2031C24.75 32.2031 23.625 31.5 22.9219 31.5C19.8984 31.5 17.2266 32.9766 15.5391 35.1562C13.8516 32.9062 12.9375 30.0938 12.9375 27C12.9375 19.2656 19.1953 12.9375 27 12.9375C34.7344 12.9375 41.0625 19.2656 41.0625 27C41.0625 30.0938 40.0781 32.9062 38.3906 35.1562Z" fill="#323232"/>
</svg>
